<svg id="music" data-name="music" xmlns="http://www.w3.org/2000/svg" viewBox="0 0 69.68 82.62"><defs><style>.cls-1{fill:#fff;}</style></defs><title>3.12易企秀</title><g id="图层_31" data-name="图层 31"><path class="cls-1" d="M34.69,14.27A27.71,27.71,0,1,1,7,42,27.74,27.74,0,0,1,34.69,14.27m0-2A29.73,29.73,0,1,0,64.42,42,29.72,29.72,0,0,0,34.69,12.25Zm0,0"/></g><g id="图层_30" data-name="图层 30"><path class="cls-1" d="M47.47,28.12l-13.6-2.2a.6.6,0,0,0-.69.64V48.2a5,5,0,0,0-2.52-.68h-4a5,5,0,0,0-5,5v.5a5,5,0,0,0,5,5h4a5,5,0,0,0,5-5v-.5a5,5,0,0,0-.5-2.19V34.24l12.27,2.6a.64.64,0,0,0,.82-.64V29.08a1,1,0,0,0-.82-1Zm0,0"/></g></svg>